<?xml version="1.0" standalone="no"?>
<svg viewBox="0 0 200 200" xmlns="http://www.w3.org/2000/svg">
  <path fill="#E8DAFF" d="M36.8,-52.5C49.8,-49,63.8,-42.2,69.9,-31.2C76.1,-20.2,74.4,-4.9,70.1,8.5C65.7,21.9,58.7,33.4,49,39.6C39.2,45.9,26.7,47,15.1,49.7C3.4,52.3,-7.2,56.6,-20.5,58C-33.7,59.5,-49.5,58,-62.5,50.2C-75.5,42.3,-85.7,28.1,-85.3,13.8C-84.9,-0.4,-73.9,-14.5,-66.2,-29.8C-58.6,-45,-54.3,-61.4,-43.8,-66C-33.3,-70.6,-16.6,-63.6,-2.4,-59.9C11.9,-56.2,23.9,-55.9,36.8,-52.5Z" transform="translate(100 100)" />
</svg>
